<svg version="1.1" id="Layer_1" xmlns="http://www.w3.org/2000/svg" xmlns:xlink="http://www.w3.org/1999/xlink" x="0px" y="0px"
	 width="250px" height="247.973px" viewBox="0 0 250 247.973" enable-background="new 0 0 250 247.973" xml:space="preserve">
<g>
	<path fill="#131413" d="M249.385,87.098c-0.116-0.911-0.258-1.821-0.445-2.714c-0.176-0.921-0.357-1.779-0.648-2.777l-0.695-1.104
		c-2.868-2.252-5.964-3.955-9.104-5.459c-2.594-1.225-5.228-2.291-7.893-3.274c-7.431-20.617-20.198-38.897-36.989-51.635
		C176.255,6.969,155.845,0,134.586,0c-21.258,0-41.669,6.969-59.025,20.134c-16.789,12.737-29.56,31.019-36.987,51.639
		c-2.658,0.979-5.297,2.05-7.888,3.269c-3.146,1.504-6.24,3.207-9.109,5.459l-0.698,1.104c-0.278,0.999-0.459,1.856-0.647,2.777
		c-0.18,0.893-0.315,1.803-0.443,2.714c-0.258,1.798-0.428,3.616-0.523,5.437c-0.183,3.644-0.08,7.294,0.32,10.917
		c0.386,3.618,1.061,7.204,2.022,10.759c0.504,1.764,1.078,3.511,1.757,5.243c0.337,0.868,0.706,1.729,1.115,2.591
		c0.201,0.428,0.421,0.846,0.646,1.284c0.499,0.873,0.588,1.044,0.798,1.354l0.942,0.867c0.614,0.316,1.123,0.555,1.679,0.82
		l1.622,0.727c0.3,0.123,0.583,0.245,0.889,0.369c-7.369,6.813-15.372,15.664-22.303,26.603L0,167.877l12.289-10.784
		c0.208-0.184,10.511-9.104,27.695-19.208l0.241,1.976c-1.125,0.584-6.528,3.42-8.133,4.763c-2.662,2.211-2.791,5.641-2.079,12.042
		c0.366,3.279,1.596,9.649,3.254,15.486c2.858,10.048,4.953,11.824,6.792,12.24c0.829,0.198,1.9,0.29,3.104,0.29
		c3.292,0,7.507-0.64,10.258-1.471c3.227,10.034,7.798,19.093,13.37,27.043c-0.269,0.072-0.534,0.158-0.803,0.236
		c-3.352-1.554-15.07-6.983-19.01-8.754l-8.229-3.705l4.868,7.602c0.355,0.549,8.758,13.651,15.619,22.483
		c6.417,8.236,15.204,16.667,31.784,16.667c1.996,0,4.084-0.128,6.236-0.365c4.943-0.568,8.659-1.014,11.484-1.377
		c17.405,6.396,36.596,6.79,54.81-0.112c4.985-1.893,9.525-4.189,13.696-6.764c7.021-1.687,14.702-3.517,18.495-4.582
		c0.61-0.164,1.372-0.346,2.163-0.533c5.287-1.216,14.122-3.266,18.834-12.689c4.747-9.509,12.488-24.078,12.571-24.228l3.619-6.797
		l-7.053,3.066c-0.377,0.172-9.315,4.063-13.958,6.497c3.226-7.427,5.127-13.574,5.788-15.937c2.601,0.626,6.456,0.546,9.291,0.546
		c1.394,0,2.826-0.241,3.758-0.479c1.843-0.469,3.266-1.692,5.941-12.06c1.559-6.025,2.677-12.587,2.981-15.961
		c0.594-6.562,0.401-10.079-2.278-12.301c-1.334-1.103-5.252-3.212-7.243-4.25c1.114-0.478,1.661-0.338,1.703-0.325l1.81-6.858
		c0.636-0.272,1.309-0.546,2.075-0.84c1.092-0.435,2.184-0.866,3.276-1.338l1.613-0.728c0.562-0.264,1.067-0.502,1.683-0.819
		l0.942-0.867c0.203-0.311,0.312-0.481,0.438-0.718c0.596-1.074,0.808-1.493,1.007-1.92c0.406-0.862,0.771-1.724,1.113-2.591
		c0.68-1.732,1.251-3.479,1.755-5.243c0.959-3.556,1.643-7.14,2.025-10.759c0.404-3.624,0.496-7.274,0.314-10.917
		C249.823,90.714,249.644,88.896,249.385,87.098z"/>
	<g transform="translate(22.000000, 5.000000)">
		<path fill="#DFC5A2" d="M123.987,223.331c-1.331,0.199-2.664,0.362-3.98,0.468c-0.857,0.042-1.756,0.128-2.574,0.128l-0.307,0.008
			c1.028-2.292,1.81-4.074,2.398-5.423C120.728,219.86,122.259,221.528,123.987,223.331"/>
		<path fill="#A89A83" d="M122.371,120.867c-2.082,1.69-4.276,3.263-6.561,4.644l-7.621,4.599c-4.779,0.583-8.927,1.763-9.163,1.836
			c-0.14,0.031-0.271,0.096-0.395,0.17c-0.371,0.215-0.652,0.572-0.788,0.997l-7.761,25.569l-41.482,9.226l-13.069-9.15
			l-3.801-30.79c7.423-1.364,17.346-2.938,29.263-4.275c-1.274,1.526-2.514,3.13-3.692,4.816l-7.095,10.184l10.333-6.886
			c0.156-0.109,6.731-4.438,17.495-9.703c10.727-0.804,22.569-1.322,35.236-1.322C116.365,120.78,119.394,120.817,122.371,120.867
			L122.371,120.867z M57.802,155.555c2.949-1.594,6.277-1.36,11.491-1.347c0.556,0.01,1.134,0.004,1.732-0.013
			c0.516,0,1.028-0.008,1.574-0.025c5.373-0.054,9.836,0.455,9.755-7.974c-0.08-8.429-3.827-15.245-9.195-15.192
			c-5.368,0.047-10.563,6.955-10.242,15.381c0.085,2.193,0.411,3.778,0.926,4.918C59.166,152.479,57.871,155.373,57.802,155.555
			L57.802,155.555z"/>
		<path fill="#A89A83" d="M194.269,127.865l-3.736,26.181l-13.176,9.227l-41.427-4.708l-7.73-25.454
			c-0.176-0.567-0.615-1.002-1.183-1.166c-0.256-0.076-5.385-1.543-10.821-2.013l0.994-0.066c0.857-0.064,15.144-1.813,32.208-7.693
			C168.291,123.621,183.724,125.939,194.269,127.865L194.269,127.865z M167.798,152.099c-0.053-0.203-1.19-3.59-6.178-2.995
			c0.573-1.254,0.832-2.945,0.65-5.267c-0.658-8.412-5.557-15.099-10.92-14.91c-5.369,0.187-8.802,7.162-8.505,15.602
			c0.296,8.422,4.794,8.362,10.162,8.171C160.219,152.562,164.177,150.348,167.798,152.099L167.798,152.099z"/>
		<path fill="#FFFFFF" d="M153.625,136.953c0.026,1.515-1.176,2.762-2.691,2.793c-1.513,0.026-2.768-1.183-2.789-2.693
			c-0.03-1.513,1.175-2.765,2.688-2.793C152.352,134.228,153.604,135.438,153.625,136.953"/>
		<path fill="#FFFFFF" d="M76.73,138.972c0.038,1.509-1.157,2.77-2.667,2.809c-1.52,0.043-2.783-1.149-2.825-2.67
			c-0.038-1.51,1.155-2.779,2.676-2.811C75.423,136.257,76.688,137.45,76.73,138.972"/>
		<path fill="#DFC5A2" d="M212.351,139.382c-0.647-0.534-2.811-1.771-4.919-2.91l-3.472,24.336
			c-0.071,0.464-0.334,0.899-0.729,1.177l-4.967,3.474c-0.118,0.588-0.21,1.078-0.3,1.537c4.883,1.202,9.623-2.317,12.284-4.856
			c1.231-4.796,2.305-10.488,2.675-14.562C213.491,141.263,212.988,139.906,212.351,139.382"/>
		<path fill="#DFC5A2" d="M135.626,231.839c-3.224-1.146-6.177-3.017-8.75-5.56c-0.214-0.218-0.418-0.428-0.633-0.643
			c-1.991,0.407-4.023,0.7-6.095,0.876c-0.874,0.039-1.706,0.114-2.617,0.114l-1.347,0.012l-0.52-0.012
			c-3.081,4.576-8.261,7.09-12.318,8.428C115.403,237.125,128.667,233.959,135.626,231.839"/>
		<path fill="#DFC5A2" d="M29.499,172.238c-0.108-0.367-0.221-0.731-0.326-1.101l-6.454-4.516c-0.405-0.287-0.663-0.721-0.728-1.215
			l-3.146-25.554c-2.329,1.242-5.021,2.777-5.737,3.377c-0.623,0.514-1.098,1.823-0.424,7.914c0.511,4.576,2.119,11.61,3.762,16.88
			C19.712,170.524,24.525,173.158,29.499,172.238"/>
		<path fill="#DFC5A2" d="M125.98,171.071c-0.688-0.077-1.265-0.559-1.467-1.228l-7.964-26.243
			c-1.337-0.177-2.521-0.273-3.522-0.273c-1.005,0-2.183,0.097-3.518,0.273l-7.742,25.489c-0.183,0.593-0.675,1.053-1.286,1.187
			l-3.701,0.824c-0.313,1.307-1.38,3.226-4.812,4.278c-5.54,1.688-40.604,12.141-44.603,11.572
			c-2.335-0.328-6.776-2.778-10.063-4.76c-1.315-3.097-2.042-5.202-2.208-5.701v-0.01l-0.01,0.01
			c0.465,1.359,5.04,14.53,14.337,27.414c9.967-2.938,18.575-5.676,21.328-6.547c5.606-8.646,13.594-17.222,19.266-17.516
			c0.985-0.049,1.997-0.079,3.001-0.079c2.779,0,5.432,0.198,7.895,0.489c-2.092-1.898-2.521-4.119-2.824-5.105
			c0,0,7.246,5.667,16.458,4.474c9.229-1.179,14.955-6.495,14.955-6.495l0.182-1.634L125.98,171.071"/>
		<path fill="#DFC5A2" d="M133.47,174.394c-1.911-0.495-3.115-1.283-3.877-2.106l-0.096,0.838c0,0-0.03,3.874-4.044,6.875
			c7.729-2.342,10.925-3.134,13.112-3.134c2.408,0,3.601,1.006,4.646,1.888c0.198,0.166,0.395,0.339,0.633,0.523
			c5.944,4.679,13.09,10.356,15.176,12.026c2.419,0.279,10.099,1.157,14.931,1.599c2.782,0.259,5.304,0.469,7.771,0.469
			c0.792,0,1.54-0.026,2.247-0.075c2.549-4.88,4.896-10.279,6.982-16.231c-2.856,2.005-9.369,6.392-12.419,6.958
			C174.562,184.766,139.067,175.846,133.47,174.394"/>
		<path fill="#E2DA97" d="M222.791,82.61c-0.067-0.84-0.159-1.68-0.261-2.51c-0.069-0.595-0.163-1.21-0.266-1.781
			c-2.242-1.885-4.792-3.565-7.443-5.084c-2.873-1.687-5.88-3.186-8.951-4.582c-3.043-1.439-6.178-2.74-9.323-4.009
			c-1.572-0.641-3.157-1.258-4.75-1.845c-1.586-0.621-3.185-1.199-4.791-1.782c3.365,0.559,6.704,1.328,10.018,2.179
			c2.156,0.551,4.299,1.176,6.427,1.846c-15.147-39.573-51.341-65.34-90.863-65.34c-39.527,0-75.718,25.768-90.853,65.339
			c2.125-0.67,4.271-1.295,6.417-1.846c3.311-0.851,6.651-1.62,10.024-2.179c-1.617,0.583-3.213,1.162-4.807,1.782
			c-1.584,0.588-3.168,1.205-4.742,1.846c-3.147,1.269-6.274,2.57-9.328,4.009c-3.061,1.396-6.068,2.895-8.944,4.582
			c-2.653,1.52-5.197,3.199-7.444,5.084c-0.092,0.572-0.188,1.188-0.263,1.781c-0.1,0.829-0.191,1.669-0.266,2.51
			c-0.146,1.687-0.204,3.377-0.215,5.075c-0.037,3.393,0.193,6.784,0.62,10.136c0.467,3.366,1.083,6.709,1.994,9.944
			c0.447,1.615,0.96,3.209,1.552,4.756c0.298,0.771,0.62,1.536,0.958,2.271c0.166,0.368,0.337,0.733,0.515,1.081l0.218,0.412
			c0.248,0.124,0.51,0.256,0.754,0.375l1.504,0.717c0.84,0.386,2.003,0.938,2.964,1.366c0.054-0.049,0.108-0.098,0.151-0.145
			l-2.793-10.64c0.593-0.16,5.897-1.531,15.038-3.275c-0.733-0.138-1.478-0.293-2.21-0.47c-2.081-0.521-4.135-1.152-6.128-1.955
			c-0.985-0.418-1.958-0.873-2.884-1.396c-0.927-0.535-1.836-1.135-2.544-1.938c10.042,3.281,30.796,1.798,49.247-0.111
			c16.869-1.74,33.789-2.864,50.79-2.901c16.996,0.038,33.922,1.161,50.783,2.901c18.458,1.909,39.212,3.393,49.252,0.111
			c-0.699,0.803-1.616,1.402-2.533,1.938c-0.935,0.524-1.908,0.979-2.894,1.396c-1.99,0.803-4.037,1.434-6.122,1.955
			c-0.31,0.073-0.622,0.138-0.93,0.208c10.027,1.859,15.863,3.371,16.481,3.537l-2.669,10.136c0.543-0.234,1.087-0.469,1.61-0.717
			l1.508-0.717c0.249-0.119,0.505-0.251,0.761-0.375l0.203-0.412c0.182-0.348,0.359-0.712,0.522-1.081
			c0.338-0.735,0.659-1.5,0.954-2.271c0.588-1.546,1.104-3.141,1.553-4.756c0.914-3.234,1.53-6.579,1.989-9.944
			c0.437-3.353,0.667-6.745,0.636-10.136C223.001,85.987,222.944,84.296,222.791,82.61"/>
		<path fill="#D7C184" d="M154.17,62.926c0.154,4.527,0.043,12.742-2.066,20.428c-0.085,0.293-0.074,0.6,0,0.884
			c-2.686-0.284-5.373-0.525-8.059-0.743c3.013-6.318,3.671-13.043,3.818-15.415C150.179,66.438,152.481,64.462,154.17,62.926"/>
		<path fill="#D7C184" d="M77.318,68.08c0.141,2.37,0.798,9.081,3.811,15.398c-2.687,0.213-5.373,0.459-8.053,0.745
			c0.073-0.272,0.078-0.574,0-0.868c-2.105-7.674-2.218-15.889-2.073-20.428C72.7,64.462,74.998,66.438,77.318,68.08"/>
		<path fill="#D7C184" d="M187.162,90.509c-0.012,0.075-0.032,0.152-0.055,0.225c0.294,0.085,0.583,0.172,0.878,0.269
			c2.483,0.814,4.97,1.665,7.345,2.761c-3.965-2.575-6.479-10.006-7.88-15.686C187.834,85.512,187.199,90.228,187.162,90.509"/>
		<path fill="#D7C184" d="M67.697,61.498l-25.642,7.293c-1.536,9.974-1.068,17.592-0.82,20.235l0.129-0.078
			c0,0,0.835-10.866,2.539-15.035c0.877-2.141,6.245-3.508,10.337-4.485c4.101-0.973,10.64-2.926,11.91,2.832
			c0.784,3.558,1.862,6.517,2.896,8.699C67.399,73.048,67.504,65.313,67.697,61.498"/>
		<path fill="#D7C184" d="M157.473,61.498c0.21,3.965,0.306,12.158-1.552,20.385c1.166-2.234,2.46-5.531,3.361-9.624
			c1.267-5.757,7.807-3.805,11.906-2.832c4.102,0.979,9.462,2.344,10.34,4.485c1.445,3.529,2.262,11.85,2.478,14.324
			c0.243-3.181,0.514-10.333-0.884-19.448L157.473,61.498"/>
		<path fill="#D7C184" d="M77.115,63.718c0.911,0.729,1.864,1.439,2.791,2.067c0.449,0.312,0.723,0.818,0.732,1.364
			c0.005,0.085,0.198,8.534,3.933,15.728c0.054,0.108,0.092,0.227,0.128,0.337c9.286-0.63,18.6-0.887,27.889-0.893
			c9.297,0.006,18.604,0.279,27.886,0.915c0.037-0.123,0.072-0.241,0.137-0.359c3.73-7.194,3.93-15.643,3.93-15.728
			c0.01-0.546,0.29-1.055,0.736-1.364c0.896-0.605,1.802-1.292,2.686-1.995l0.117-0.33c1.942-18.898-1.618-36.313-3.883-44.918
			c-0.118,5.884-1.513,56.298-14.024,56.298h-15.938h-2.653H95.644C82.359,74.841,81.29,18,81.29,18l-0.684,2.019
			C78.342,29.081,75.229,45.741,77.115,63.718"/>
		<path fill="#D7C184" d="M38.07,90.73c-0.012-0.074-0.033-0.145-0.05-0.221c-0.041-0.281-0.681-5.002-0.295-12.444
			c-1.402,5.685-3.924,13.128-7.893,15.702c2.374-1.101,4.872-1.955,7.359-2.77C37.481,90.906,37.78,90.819,38.07,90.73"/>
		<path fill="#9F8F79" d="M197.966,166.995c-0.212,1.091-0.388,1.965-0.734,3.336c2.849,0.663,7.504,1.18,9.729,0.745
			c0.954-1.035,2.184-4.626,3.289-8.939C207.588,164.678,202.847,168.197,197.966,166.995"/>
		<path fill="#9F8F79" d="M95.917,236.7c6.802,1.861,13.749,2.67,20.594,2.217c6.866-0.469,15.781-1.948,25.245-5.791
			c-2.124-0.157-4.176-0.592-6.129-1.286c-6.959,2.122-20.224,5.287-32.279,3.219c-3.191,1.051-5.693,1.377-5.938,1.407
			C96.906,236.522,96.49,236.593,95.917,236.7"/>
		<path fill="#9F8F79" d="M29.948,173.763c-0.157-0.505-0.301-1.016-0.45-1.524c-4.974,0.92-9.787-1.714-13.052-4.212
			c1.057,3.383,2.124,6.041,2.922,6.85C21.832,175.306,27.28,174.551,29.948,173.763"/>
		<path fill="#9F8F79" d="M37.302,182.192c3.285,1.981,7.727,4.433,10.063,4.759c3.999,0.569,39.063-9.884,44.603-11.572
			c3.432-1.052,4.499-2.971,4.812-4.277l-50.588,11.265c-0.128,0.021-0.257,0.038-0.379,0.038H45.81h-0.002
			c-0.349,0-0.698-0.107-0.997-0.313l-1.97-1.375l-5.909-4.14v-0.008l-2.385-1.666c0.042,0.136,0.089,0.27,0.134,0.403
			c0.135,0.393,0.268,0.79,0.411,1.176v0.01C35.26,176.99,35.987,179.096,37.302,182.192"/>
		<path fill="#9F8F79" d="M192.482,172.474c0.324-1.194,0.641-2.404,0.93-3.625l-1.758,1.234l-4.726,3.309l-5.113,3.587
			c-0.263,0.179-0.568,0.289-0.882,0.313c-0.105,0.006-0.209,0.004-0.312-0.008l-50.941-5.792l-0.086,0.794
			c0.761,0.824,1.966,1.612,3.876,2.107c5.597,1.45,41.091,10.371,45.062,9.628c3.05-0.566,9.564-4.953,12.419-6.958
			c0.024-0.07,0.049-0.137,0.072-0.206c0.222-0.637,0.439-1.274,0.656-1.918C191.952,174.124,192.217,173.306,192.482,172.474"/>
		<path fill="#706B69" d="M138.583,103.841c-0.401,0.52-0.841,1.087-1.312,1.68c-2.42,3.058-5.771,6.958-9.739,10.784
			c-4.625-0.145-9.372-0.225-14.259-0.225c-8.077,0-15.822,0.212-23.174,0.566c10.394-4.307,22.874-8.519,36.394-11.045
			C130.437,104.853,134.477,104.254,138.583,103.841"/>
		<path fill="#706B69" d="M77.779,108.492c-3.715,2.607-7.899,5.93-11.961,9.965c-10.398,1.044-19.474,2.301-26.956,3.51
			C50.367,116.681,63.5,111.81,77.779,108.492"/>
		<path fill="#706B69" d="M204.855,129.965l-4.235,29.593l-20.268,14.201l-52.854-6.011l-7.953-26.204
			c-0.188-0.634-0.727-1.102-1.385-1.213c-1.957-0.317-3.688-0.472-5.134-0.472c-1.448,0-3.18,0.155-5.148,0.472
			c-0.649,0.112-1.184,0.579-1.383,1.213l-7.757,25.566l-52.556,11.693l-20.829-14.59l-4.11-33.211
			c0.899-0.501,1.81-1.007,2.723-1.51c1.292-0.278,2.742-0.572,4.347-0.877l3.869,31.34c0.053,0.486,0.328,0.92,0.729,1.201
			l14.333,10.041c0.289,0.198,0.642,0.311,0.987,0.311c0.128,0,0.252-0.017,0.387-0.043l43.209-9.613
			c0.15-0.037,0.293-0.09,0.432-0.158c0.396-0.214,0.717-0.579,0.846-1.033l7.788-25.619c2.086-0.533,7.435-1.788,12.132-1.788
			c4.688,0,10.036,1.255,12.128,1.788l7.782,25.619c0.199,0.662,0.781,1.145,1.465,1.225l43.218,4.91
			c0.415,0.048,0.842-0.066,1.186-0.308l14.339-10.023c0.385-0.278,0.651-0.711,0.717-1.183l3.827-26.78
			C200.561,129.053,202.963,129.558,204.855,129.965"/>
		<path fill="#706B69" d="M210.189,111.403l-3.72,14.113c-7.609-1.68-24.318-4.972-47.064-7.188
			c7.43-3.168,14.996-7.137,21.911-12.111C194.851,108.129,204.789,110.182,210.189,111.403"/>
		<path fill="#706B69" d="M16.366,111.403l1.035,3.906c2.895-2.305,5.544-4.215,7.78-5.74
			C21.538,110.269,18.566,110.905,16.366,111.403"/>
		<path fill="#95252C" d="M162.295,103.532c-5.695-0.322-11.389-0.595-17.088-0.831c-0.328,0.487-1,1.466-1.963,2.784
			c-3.054,4.131-9.073,11.662-16.789,18.124c5.806-1.839,28.835-9.564,40.5-19.789C165.402,103.719,163.851,103.622,162.295,103.532
			"/>
		<path fill="#95252C" d="M120.559,102.028c0.008-0.002,0.018-0.003,0.023-0.005c-2.888-0.038-5.78-0.068-8.665-0.08h-0.005
			c-4.249,0.012-8.489,0.066-12.738,0.139l-7.834,3.714c-0.012,0-0.06,0.027-0.115,0.065c-1.179,0.573-11.464,5.763-21.147,15.022
			c0.847-0.446,1.745-0.909,2.67-1.377c5.296-3.559,19.421-11.986,41.386-17.541C116.274,101.978,118.417,101.991,120.559,102.028"
			/>
		<path fill="#95252C" d="M72.413,102.975c-3.628,0.167-7.256,0.354-10.881,0.558c-4.203,0.235-8.393,0.518-12.579,0.833
			c-2.088,0.161-4.179,0.339-6.25,0.556c-0.601,0.059-1.189,0.124-1.777,0.199c-5.471,3.271-26.407,16.413-40.792,33.615
			c0.248-0.299,0.503-0.594,0.758-0.889C27.523,115.129,56.72,106.284,72.413,102.975"/>
		<path fill="#95252C" d="M192.895,196.408c-0.159,0.082-0.328,0.168-0.479,0.248c-2.671,1.404-6.171,2.091-10.693,2.091
			c-2.692,0-5.331-0.226-8.258-0.49c-5.844-0.534-15.735-1.698-15.836-1.716l-0.756-0.08l-0.599-0.482
			c-0.092-0.061-8.751-6.968-15.753-12.472c-0.286-0.231-0.544-0.452-0.778-0.638c-0.739-0.632-0.739-0.632-1.179-0.632
			c-2.248,0-8.777,2.027-23.075,6.456l-0.878,0.281l-0.869-0.329c-0.097-0.024-9.479-3.505-20.723-3.505
			c-0.922,0-1.839,0.023-2.733,0.068c-1.125,0.057-7.445,3.06-15.532,15.845l-0.518,0.824l-0.932,0.299
			c-0.134,0.044-14.047,4.533-28.804,8.752l-0.952,0.271l-0.91-0.42c-0.096-0.032-5.858-2.714-11.351-5.23
			c0.405,0.188,0.812,0.373,1.217,0.561c5.421,4.68,15.803,13.679,16.956,14.926c0.16,0.179,0.383,0.399,0.648,0.648
			c-0.268-0.303-0.528-0.615-0.783-0.93c-0.003-0.002-0.006-0.007-0.009-0.01l0.001,0.001l-0.001-0.001
			c2.392,2.269,5.062,4.227,7.978,5.606c1.456,0.684,2.982,1.214,4.533,1.471c0.782,0.128,1.542,0.192,2.334,0.192
			c0.802,0,1.622-0.024,2.44-0.064c3.244-0.166,6.518-0.415,9.784-0.731c3.261-0.294,6.525-0.621,9.783-1.016
			c3.255-0.35,6.509-0.76,9.734-1.26c1.617-0.235,3.223-0.503,4.792-0.852c0.771-0.182,1.574-0.382,2.185-0.655
			c0.556-0.266,1.232-0.803,1.826-1.312c1.213-1.046,2.386-2.205,3.547-3.361c1.162-1.154,2.296-2.342,3.431-3.548
			c1.911-2.001,3.549-4.126,5.398-6.186c0.237-0.257,0.479-0.528,0.725-0.792c0,0.004,0,0.004,0.004,0.004l0.021,0.024
			c0.386,0.278,0.771,0.559,1.147,0.854c2.227,1.66,4.526,3.455,6.742,5.009c2.859,2.009,5.753,4.021,8.747,5.695
			c0.746,0.416,1.52,0.806,2.258,1.05c0.096,0.034,0.176,0.052,0.25,0.062c0.054,0.032,0.251,0.063,0.273,0.063
			c0.146,0.022,0.341,0.032,0.529,0.045c0.403,0.005,0.82-0.013,1.239-0.032c1.688-0.116,3.401-0.362,5.115-0.632
			c3.423-0.533,6.854-1.149,10.268-1.833c3.418-0.654,6.835-1.356,10.229-2.11c3.411-0.723,6.808-1.521,10.178-2.368
			c1.676-0.452,3.353-0.868,4.849-1.585c1.527-0.712,2.944-1.688,4.25-2.806c2.633-2.243,4.849-5.025,6.688-8.054
			c-0.002,0.005-0.002,0.007-0.005,0.01C191.72,199.535,192.459,197.66,192.895,196.408"/>
		<path fill="#95252C" d="M129.056,35.481h6.021V23.249H91.047v12.232h6.021v-6.213h12.452v37.778h-5.126v7.011h17.334v-7.011
			h-5.126V29.268h12.454V35.481"/>
		<path fill="#741D2C" d="M174.615,104.361c-0.011-0.005-0.021-0.01-0.035-0.01c-2.494-0.189-4.988-0.36-7.483-0.522
			c-0.046-0.003-0.095-0.005-0.143-0.008c-11.665,10.225-34.693,17.95-40.5,19.789c-0.112,0.097-0.224,0.192-0.336,0.286
			c7.476-1.345,18.64-4.013,30.226-9.144c5.698-2.522,11.499-5.638,17.018-9.49C173.787,104.965,174.2,104.656,174.615,104.361"/>
		<path fill="#741D2C" d="M114.133,101.964c-21.965,5.553-36.09,13.98-41.386,17.539c4.246-2.161,9.277-4.545,14.932-6.913
			c0.028-0.011,0.058-0.024,0.086-0.036c0.574-0.239,1.16-0.481,1.748-0.721c0.193-0.079,0.382-0.158,0.575-0.234
			c0.508-0.207,1.022-0.408,1.539-0.615c0.288-0.112,0.571-0.225,0.861-0.337c0.465-0.181,0.934-0.363,1.406-0.543
			c0.354-0.134,0.707-0.269,1.064-0.401c0.433-0.166,0.869-0.329,1.309-0.489c0.409-0.151,0.825-0.302,1.238-0.451
			c0.408-0.148,0.812-0.294,1.223-0.44c0.467-0.165,0.938-0.328,1.413-0.493c0.374-0.128,0.745-0.258,1.122-0.387
			c0.554-0.187,1.113-0.372,1.674-0.557c0.31-0.102,0.614-0.203,0.925-0.305c0.877-0.284,1.764-0.565,2.656-0.838
			c1.949-0.599,3.94-1.169,5.964-1.719c2.64-0.716,5.329-1.39,8.078-1.996C118.417,101.991,116.274,101.978,114.133,101.964"/>
		<path fill="#741D2C" d="M72.413,102.975c-15.693,3.31-44.89,12.154-71.521,34.874c-0.254,0.294-0.511,0.589-0.758,0.888
			c13.538-9.409,36.807-23.4,65.574-31.911c0.927-0.273,1.863-0.542,2.802-0.806c4.773-1.34,9.698-2.509,14.737-3.488
			C79.638,102.66,76.026,102.809,72.413,102.975"/>
		<path fill="#741D2C" d="M198.08,193.899c-0.092,0.042-0.183,0.084-0.273,0.127c-0.186,0.086-0.371,0.172-0.552,0.258
			c-0.149,0.069-0.294,0.138-0.445,0.207c-0.116,0.055-0.234,0.112-0.355,0.168c-0.182,0.087-0.364,0.175-0.545,0.261
			c-0.075,0.038-0.153,0.073-0.231,0.112c-0.207,0.1-0.41,0.195-0.609,0.293c-0.045,0.023-0.09,0.044-0.136,0.067
			c-0.218,0.107-0.436,0.211-0.646,0.316c-0.022,0.011-0.044,0.022-0.066,0.031c-0.47,0.231-0.91,0.455-1.325,0.668
			c-0.435,1.249-1.178,3.125-2.306,5.22c-0.003,0.003-0.005,0.008-0.005,0.01c0.005-0.007,0.01-0.014,0.01-0.014
			c-0.005,0.007-0.01,0.012-0.012,0.019c-1.838,3.016-4.05,5.791-6.678,8.031c-1.306,1.118-2.724,2.094-4.249,2.805
			c-1.498,0.719-3.176,1.134-4.85,1.585c-3.37,0.849-6.766,1.646-10.178,2.367c-3.394,0.756-6.81,1.458-10.229,2.111
			c-3.413,0.686-6.844,1.302-10.271,1.834c-1.712,0.268-3.424,0.514-5.114,0.631c-0.419,0.021-0.834,0.037-1.237,0.032
			c-0.189-0.011-0.385-0.023-0.53-0.044c-0.022,0-0.22-0.031-0.272-0.063c-0.076-0.011-0.156-0.027-0.251-0.065
			c-0.739-0.24-1.511-0.633-2.258-1.048c-2.993-1.676-5.888-3.686-8.747-5.694c-2.213-1.553-4.517-3.35-6.742-5.01l-0.193,0.275
			l0.013,0.013c0.139,0.127,0.278,0.241,0.417,0.364c-0.004-0.002-0.006-0.004-0.01-0.007c-0.103-0.076-0.199-0.15-0.294-0.22
			l1.866,2.225c0.005,0.009,0.074,0.095,0.212,0.254c0.952,1.118,4.936,5.74,9.667,10.433c3.6,3.57,7.944,5.373,12.929,5.373
			c1.699,0,3.488-0.225,5.296-0.653c1.67-0.409,3.489-0.845,5.353-1.294c5.523-1.314,11.644-2.78,15.705-3.835
			c0.271-0.072,0.533-0.14,0.787-0.207c0.574-0.151,1.096-0.291,1.562-0.42c0.732-0.209,1.54-0.4,2.4-0.594
			c4.925-1.142,11.662-2.705,15.231-9.857c0.987-1.972,2.098-4.156,3.242-6.381c1.59-3.094,3.243-6.273,4.713-9.081
			c0.233-0.446,0.467-0.889,0.689-1.312c0-0.003,0.003-0.003,0.003-0.003c0.118-0.228,0.239-0.458,0.354-0.678
			C198.643,193.638,198.36,193.77,198.08,193.899"/>
		<path fill="#741D2C" d="M117.402,209.328l-0.32-0.303c-1.85,2.06-3.489,4.186-5.398,6.188c-1.135,1.205-2.269,2.393-3.431,3.548
			c-1.161,1.155-2.334,2.318-3.547,3.361c-0.595,0.509-1.271,1.045-1.826,1.31c-0.609,0.276-1.414,0.477-2.185,0.658
			c-1.568,0.348-3.175,0.615-4.792,0.851c-3.225,0.5-6.479,0.912-9.734,1.26c-3.258,0.396-6.522,0.723-9.783,1.015
			c-3.265,0.316-6.541,0.565-9.784,0.733c-0.818,0.038-1.638,0.062-2.44,0.062c-0.792,0-1.552-0.062-2.334-0.191
			c-1.552-0.258-3.078-0.788-4.533-1.471c-2.915-1.379-5.584-3.34-7.977-5.606c0.002,0.002,0.005,0.006,0.008,0.008
			c0.323,0.398,0.679,0.771,1.019,1.151c-0.083-0.076-0.161-0.15-0.237-0.223c-0.264-0.247-0.486-0.467-0.647-0.646
			c-1.153-1.249-11.536-10.246-16.957-14.926c-0.405-0.189-0.813-0.373-1.217-0.562c0.96,1.423,2.012,2.964,3.105,4.536
			c1.587,2.286,3.259,4.637,4.896,6.846c0.74,0.999,1.475,1.972,2.187,2.886c5.893,7.583,13.31,14.59,27.544,14.59
			c1.782,0,3.679-0.109,5.626-0.329c0.454-0.05,0.895-0.102,1.328-0.153c0.418-0.046,0.828-0.093,1.226-0.14
			c12.377-1.423,15.773-2.029,17.658-2.355c0.487-0.084,0.903-0.157,1.354-0.222c0.175-0.025,0.354-0.054,0.544-0.079
			c0.069-0.007,4.254-0.545,8.346-2.535c2.82-1.368,5.594-3.427,6.949-6.471c3.426-7.662,4.122-9.494,4.149-9.563L117.402,209.328"
			/>
		<path fill="#131413" d="M150.934,139.747c1.513-0.031,2.717-1.279,2.691-2.792c-0.023-1.515-1.274-2.726-2.795-2.692
			c-1.513,0.027-2.72,1.279-2.688,2.791C148.166,138.564,149.418,139.774,150.934,139.747L150.934,139.747z M167.798,152.099
			c-3.621-1.75-7.579,0.467-14.79,0.601c-5.368,0.19-9.866,0.25-10.162-8.172c-0.298-8.439,3.135-15.414,8.505-15.601
			c5.363-0.189,10.26,6.498,10.92,14.91c0.182,2.321-0.076,4.013-0.65,5.266C166.608,148.508,167.746,151.895,167.798,152.099
			L167.798,152.099z"/>
		<path fill="#131413" d="M74.065,141.78c1.508-0.037,2.704-1.3,2.666-2.809c-0.042-1.521-1.308-2.715-2.815-2.672
			c-1.521,0.031-2.713,1.301-2.676,2.811C71.281,140.629,72.544,141.823,74.065,141.78L74.065,141.78z M82.354,146.195
			c0.08,8.428-4.383,7.921-9.755,7.975c-0.546,0.017-1.06,0.024-1.575,0.024c-0.599,0.016-1.177,0.022-1.732,0.012
			c-5.214-0.012-8.542-0.246-11.491,1.347c0.069-0.181,1.365-3.075,6.043-4.255c-0.518-1.138-0.841-2.724-0.927-4.916
			c-0.322-8.425,4.875-15.332,10.242-15.381C78.528,130.948,82.274,137.767,82.354,146.195L82.354,146.195z"/>
		<path fill="#131413" d="M184.007,88.238c-0.057,0.742-0.113,1.269-0.146,1.554c-2.118-0.576-4.257-1.103-6.41-1.605
			c-7.092-1.557-14.269-2.712-21.482-3.537c-0.248-0.031-0.503-0.049-0.756-0.081c0.049-0.107,0.093-0.214,0.125-0.321
			c0.215-0.787,0.403-1.576,0.582-2.365c1.858-8.227,1.762-16.42,1.553-20.385l25.648,7.293
			C184.52,77.906,184.25,85.057,184.007,88.238L184.007,88.238z M152.104,83.354c-0.085,0.293-0.074,0.6,0,0.884
			c-2.686-0.284-5.373-0.525-8.059-0.743c3.013-6.318,3.671-13.043,3.818-15.415c2.315-1.643,4.615-3.618,6.307-5.154
			C154.325,67.454,154.213,75.668,152.104,83.354L152.104,83.354z M73.076,84.222c0.073-0.272,0.078-0.574,0-0.868
			c-2.105-7.675-2.218-15.889-2.073-20.428c1.696,1.536,3.993,3.511,6.315,5.154c0.141,2.37,0.798,9.081,3.811,15.398
			C78.442,83.69,75.756,83.938,73.076,84.222L73.076,84.222z M69.201,84.645c-3.597,0.439-7.199,0.893-10.784,1.487
			c-3.575,0.612-7.151,1.262-10.694,2.05c-2.15,0.5-4.28,1.028-6.413,1.604c-0.019-0.168-0.045-0.428-0.075-0.762
			c-0.247-2.643-0.716-10.26,0.82-20.235l25.643-7.293c-0.193,3.817-0.298,11.551,1.35,19.46c0.229,1.098,0.49,2.197,0.79,3.291
			c0.033,0.107,0.076,0.214,0.124,0.312C69.703,84.59,69.457,84.611,69.201,84.645L69.201,84.645z M197.754,95
			c-0.218-0.104-0.434-0.211-0.64-0.313c-0.317-0.152-0.669-0.328-1.072-0.523c-0.024-0.012-0.041-0.021-0.041-0.021
			c-0.228-0.111-0.452-0.24-0.673-0.381c-2.373-1.097-4.861-1.946-7.345-2.761c-0.294-0.096-0.583-0.183-0.877-0.268
			c0.021-0.073,0.043-0.15,0.055-0.225c0.037-0.281,0.675-4.998,0.29-12.431c-0.164-3.176-0.514-6.845-1.18-10.879
			c-0.107-0.645-0.577-1.167-1.197-1.344l-3.656-1.034c-0.786-28.289-12.434-41.583-12.798-41.995
			c10.404,16.747,10.313,36.607,10.132,41.236l-22.666-6.443c-0.016,0-0.031,0-0.052-0.01c-0.092-0.023-0.195-0.034-0.291-0.043
			c-0.021,0-0.046-0.004-0.083-0.004c-0.117-0.006-0.248,0.004-0.37,0.031c-0.018,0-0.037,0.018-0.062,0.018
			c-0.1,0.021-0.191,0.052-0.292,0.1c-0.036,0.017-0.069,0.039-0.101,0.049c-0.077,0.052-0.152,0.095-0.227,0.149
			c-0.016,0.012-0.037,0.022-0.054,0.037c-0.023,0.016-0.03,0.032-0.043,0.043c-0.022,0.022-0.048,0.038-0.065,0.054
			c-0.021,0.022-0.632,0.62-1.579,1.515c0.067-2.121,0.083-5.364-0.158-9.326c-0.022-0.376-0.048-0.757-0.073-1.143
			c-0.712-9.953-3.064-23.933-10.095-36.171c0.061,0.176,0.757,2.207,1.655,5.627c2.262,8.605,5.824,26.02,3.883,44.918
			c-0.01,0.086-0.016,0.171-0.025,0.259c-0.028,0.024-0.061,0.047-0.092,0.071c-0.885,0.704-1.789,1.389-2.686,1.995
			c-0.448,0.312-0.728,0.818-0.739,1.364c0,0.085-0.198,8.534-3.927,15.728c-0.067,0.118-0.102,0.237-0.14,0.358
			c-9.28-0.635-18.587-0.907-27.884-0.914c-9.291,0.006-18.604,0.261-27.89,0.893c-0.036-0.112-0.074-0.23-0.128-0.337
			c-3.735-7.194-3.927-15.642-3.933-15.728c-0.009-0.546-0.284-1.055-0.732-1.364c-0.926-0.627-1.879-1.337-2.791-2.067
			c-1.886-17.978,1.227-34.637,3.491-43.701c1.076-4.304,1.962-6.905,2.033-7.104C72.438,30.666,72.084,52.084,72.31,59.555
			c-0.965-0.895-1.562-1.492-1.579-1.516c-0.017-0.016-0.048-0.031-0.07-0.054c-0.011-0.011-0.021-0.027-0.037-0.043
			c-0.018-0.015-0.038-0.025-0.06-0.037c-0.075-0.054-0.151-0.097-0.227-0.138c-0.036-0.021-0.063-0.043-0.106-0.059
			c-0.098-0.048-0.181-0.08-0.278-0.091c-0.028-0.01-0.048-0.027-0.065-0.027c-0.128-0.026-0.257-0.038-0.375-0.031
			c-0.031,0-0.065,0.005-0.096,0.005c-0.092,0.009-0.182,0.02-0.278,0.043c-0.021,0.01-0.032,0.01-0.054,0.01L46.426,64.06
			c-0.183-4.63-0.28-24.489,10.125-41.236c-0.361,0.415-12.006,13.709-12.799,41.998l-3.638,1.034
			c-0.637,0.177-1.103,0.7-1.208,1.345c-0.665,4.029-1.014,7.694-1.18,10.866c-0.384,7.442,0.254,12.164,0.295,12.445
			c0.018,0.075,0.038,0.146,0.05,0.221c-0.291,0.089-0.589,0.176-0.878,0.267c-2.488,0.814-4.985,1.668-7.36,2.77
			c-0.218,0.139-0.442,0.268-0.67,0.378c0,0-0.015,0.007-0.037,0.021c-0.404,0.195-0.756,0.37-1.073,0.523
			c-0.18,0.088-0.371,0.18-0.558,0.272c-0.118,0.068-0.238,0.127-0.354,0.197c1.682-0.66,3.42-1.142,5.158-1.569
			c1.745-0.435,3.501-0.819,5.255-1.152c3.528-0.656,7.065-1.226,10.624-1.659c3.549-0.466,7.113-0.85,10.683-1.149
			c3.571-0.305,7.135-0.605,10.714-0.812c14.311-0.847,28.659-1.114,43.013-1.12c14.358,0.011,28.704,0.235,43.013,1.115
			c3.58,0.208,7.145,0.506,10.719,0.808c3.577,0.304,7.128,0.694,10.677,1.159c3.56,0.428,7.104,0.996,10.625,1.655
			c1.76,0.338,3.513,0.711,5.249,1.155c1.751,0.428,3.48,0.91,5.166,1.571C197.942,95.102,197.847,95.053,197.754,95L197.754,95z"/>
		<path fill="#131413" d="M116.602,29.268v37.778h5.126v7.011h-17.334v-7.011h5.126V29.268H97.068v6.214h-6.021V23.249h44.03v12.232
			h-6.021v-6.214L116.602,29.268L116.602,29.268L116.602,29.268z M139.611,40.005V18.721H86.525v21.285h15.075v-6.214h3.386v28.724
			h-5.115v16.061h26.382V62.515h-5.13V33.791h3.399v6.214L139.611,40.005L139.611,40.005z"/>
	</g>
</g>
</svg>
